<svg width="44" height="44" viewBox="0 0 44 44" fill="none" xmlns="http://www.w3.org/2000/svg">
<g clip-path="url(#clip0_76_120)">
<g clip-path="url(#clip1_76_120)">
<path d="M27.6187 3.58427C26.4234 3.23974 25.1789 3.93584 24.8343 5.13115L15.8343 36.6312C15.4898 37.8265 16.1859 39.071 17.3812 39.4155C18.5765 39.7601 19.821 39.064 20.1656 37.8686L29.1656 6.36865C29.5101 5.17334 28.814 3.92881 27.6187 3.58427ZM33.2859 12.0288C32.407 12.9077 32.407 14.3351 33.2859 15.214L39.5648 21.4999L33.2789 27.7858C32.4 28.6647 32.4 30.0921 33.2789 30.971C34.1578 31.8499 35.5851 31.8499 36.464 30.971L44.339 23.096C45.2179 22.2171 45.2179 20.7897 44.339 19.9108L36.464 12.0358C35.5851 11.1569 34.1578 11.1569 33.2789 12.0358L33.2859 12.0288ZM11.721 12.0288C10.8421 11.1499 9.41479 11.1499 8.53589 12.0288L0.660889 19.9038C-0.218018 20.7827 -0.218018 22.2101 0.660889 23.089L8.53589 30.964C9.41479 31.8429 10.8421 31.8429 11.721 30.964C12.6 30.0851 12.6 28.6577 11.721 27.7788L5.43511 21.4999L11.721 15.214C12.6 14.3351 12.6 12.9077 11.721 12.0288Z" fill="#00FFCC"/>
</g>
</g>
<defs>
<clipPath id="clip0_76_120">
<rect width="44" height="44" fill="white"/>
</clipPath>
<clipPath id="clip1_76_120">
<path d="M0 3.5H45V39.5H0V3.5Z" fill="white"/>
</clipPath>
</defs>
</svg>
