<svg width="44" height="44" viewBox="0 0 44 44" fill="none" xmlns="http://www.w3.org/2000/svg">
<path d="M9.625 8.5C9.625 6.01797 11.643 4 14.125 4H29.875C32.357 4 34.375 6.01797 34.375 8.5V35.5C34.375 37.982 32.357 40 29.875 40H14.125C11.643 40 9.625 37.982 9.625 35.5V8.5ZM24.25 35.5C24.25 34.9033 24.0129 34.331 23.591 33.909C23.169 33.4871 22.5967 33.25 22 33.25C21.4033 33.25 20.831 33.4871 20.409 33.909C19.9871 34.331 19.75 34.9033 19.75 35.5C19.75 36.0967 19.9871 36.669 20.409 37.091C20.831 37.5129 21.4033 37.75 22 37.75C22.5967 37.75 23.169 37.5129 23.591 37.091C24.0129 36.669 24.25 36.0967 24.25 35.5ZM29.875 8.5H14.125V31H29.875V8.5Z" fill="#00FFCC"/>
</svg>
