<svg width="1350" height="900" viewBox="0 0 1350 900" fill="none" xmlns="http://www.w3.org/2000/svg">
<g opacity="0.7" filter="url(#filter0_f_24_1002)">
<path d="M56.25 450H225V337.5H393.75V562.5H562.5" stroke="#00FFCC" stroke-width="2.25"/>
</g>
<g opacity="0.5" filter="url(#filter1_f_24_1002)">
<path d="M675 225H843.75V450H1012.5V337.5H1181.25" stroke="#00FFCC" stroke-width="2.25"/>
</g>
<g opacity="0.6" filter="url(#filter2_f_24_1002)">
<path d="M112.5 675H281.25V787.5H450V618.75H618.75" stroke="#00FFCC" stroke-width="2.25"/>
</g>
<g filter="url(#filter3_f_24_1002)">
<path d="M225 454.5C227.485 454.5 229.5 452.485 229.5 450C229.5 447.515 227.485 445.5 225 445.5C222.515 445.5 220.5 447.515 220.5 450C220.5 452.485 222.515 454.5 225 454.5Z" fill="#00FFCC"/>
</g>
<g filter="url(#filter4_f_24_1002)">
<path d="M393.75 342C396.235 342 398.25 339.985 398.25 337.5C398.25 335.015 396.235 333 393.75 333C391.265 333 389.25 335.015 389.25 337.5C389.25 339.985 391.265 342 393.75 342Z" fill="#00FFCC"/>
</g>
<g filter="url(#filter5_f_24_1002)">
<path d="M843.75 454.5C846.235 454.5 848.25 452.485 848.25 450C848.25 447.515 846.235 445.5 843.75 445.5C841.265 445.5 839.25 447.515 839.25 450C839.25 452.485 841.265 454.5 843.75 454.5Z" fill="#00FFCC"/>
</g>
<g filter="url(#filter6_f_24_1002)">
<path d="M1012.5 342C1014.99 342 1017 339.985 1017 337.5C1017 335.015 1014.99 333 1012.5 333C1010.01 333 1008 335.015 1008 337.5C1008 339.985 1010.01 342 1012.5 342Z" fill="#00FFCC"/>
</g>
<defs>
<filter id="filter0_f_24_1002" x="49.5" y="329.625" width="519.75" height="240.75" filterUnits="userSpaceOnUse" color-interpolation-filters="sRGB">
<feFlood flood-opacity="0" result="BackgroundImageFix"/>
<feBlend mode="normal" in="SourceGraphic" in2="BackgroundImageFix" result="shape"/>
<feGaussianBlur stdDeviation="3.375" result="effect1_foregroundBlur_24_1002"/>
</filter>
<filter id="filter1_f_24_1002" x="668.25" y="217.125" width="519.75" height="240.75" filterUnits="userSpaceOnUse" color-interpolation-filters="sRGB">
<feFlood flood-opacity="0" result="BackgroundImageFix"/>
<feBlend mode="normal" in="SourceGraphic" in2="BackgroundImageFix" result="shape"/>
<feGaussianBlur stdDeviation="3.375" result="effect1_foregroundBlur_24_1002"/>
</filter>
<filter id="filter2_f_24_1002" x="105.75" y="610.875" width="519.75" height="184.5" filterUnits="userSpaceOnUse" color-interpolation-filters="sRGB">
<feFlood flood-opacity="0" result="BackgroundImageFix"/>
<feBlend mode="normal" in="SourceGraphic" in2="BackgroundImageFix" result="shape"/>
<feGaussianBlur stdDeviation="3.375" result="effect1_foregroundBlur_24_1002"/>
</filter>
<filter id="filter3_f_24_1002" x="213.75" y="438.75" width="22.5" height="22.5" filterUnits="userSpaceOnUse" color-interpolation-filters="sRGB">
<feFlood flood-opacity="0" result="BackgroundImageFix"/>
<feBlend mode="normal" in="SourceGraphic" in2="BackgroundImageFix" result="shape"/>
<feGaussianBlur stdDeviation="3.375" result="effect1_foregroundBlur_24_1002"/>
</filter>
<filter id="filter4_f_24_1002" x="382.5" y="326.25" width="22.5" height="22.5" filterUnits="userSpaceOnUse" color-interpolation-filters="sRGB">
<feFlood flood-opacity="0" result="BackgroundImageFix"/>
<feBlend mode="normal" in="SourceGraphic" in2="BackgroundImageFix" result="shape"/>
<feGaussianBlur stdDeviation="3.375" result="effect1_foregroundBlur_24_1002"/>
</filter>
<filter id="filter5_f_24_1002" x="832.5" y="438.75" width="22.5" height="22.5" filterUnits="userSpaceOnUse" color-interpolation-filters="sRGB">
<feFlood flood-opacity="0" result="BackgroundImageFix"/>
<feBlend mode="normal" in="SourceGraphic" in2="BackgroundImageFix" result="shape"/>
<feGaussianBlur stdDeviation="3.375" result="effect1_foregroundBlur_24_1002"/>
</filter>
<filter id="filter6_f_24_1002" x="1001.25" y="326.25" width="22.5" height="22.5" filterUnits="userSpaceOnUse" color-interpolation-filters="sRGB">
<feFlood flood-opacity="0" result="BackgroundImageFix"/>
<feBlend mode="normal" in="SourceGraphic" in2="BackgroundImageFix" result="shape"/>
<feGaussianBlur stdDeviation="3.375" result="effect1_foregroundBlur_24_1002"/>
</filter>
</defs>
</svg>
